<svg xmlns="http://www.w3.org/2000/svg" height="30" width="60" viewBox="-39.687495 -22.00025 343.95829 132.0015">
    <g stroke-linecap="square" stroke-linejoin="bevel">
        <path d="M218.1518 62.534h18.5661V39.373h4.6415v23.161h18.5661V30.1107l-9.283-9.2645h-13.9246V4.6346h-18.5661V62.534m-81.2256-9.2645l9.2808 9.2645h25.5295V44.005h-16.2442v-4.632h16.2442V20.8462h-16.2442V4.6346h-18.566v48.635m39.4518 0l9.283 9.2645h27.8492V44.005h-18.5661v-4.632h18.566V20.8462h-27.849l-9.2831 9.2645v23.1589m-62.6595-48.635h18.5661V16.214h-18.5661V4.6346M39.454 20.8462H23.2076V4.6346H4.6416v48.635l9.283 9.2645H39.454V44.005H23.2076v-4.632h16.2465V20.8462m4.6416 32.4234l9.2807 9.2645h55.7007V20.8462H90.511v23.159h-4.644v-23.159H67.3033v23.159h-4.6415v-23.159H44.0957v32.4234m69.6229-32.4234h18.5661v41.6879h-18.5661V20.8462" fill="#f2f4ff"/>
    </g>
</svg>